<?xml version="1.0" encoding="UTF-8"?>
<svg width="400px" height="148px" viewBox="0 0 400 148" version="1.1" xmlns="http://www.w3.org/2000/svg" xmlns:xlink="http://www.w3.org/1999/xlink">
    <!-- Generator: Sketch 52.6 (67491) - http://www.bohemiancoding.com/sketch -->
    <title>Group 3</title>
    <desc>Created with Sketch.</desc>
    <g id="Page-1" stroke="none" stroke-width="1" fill="none" fill-rule="evenodd">
        <g id="Artboard" transform="translate(-426.000000, -142.000000)" fill="#FFFFFF">
            <g id="Group-3" transform="translate(426.000000, 96.000000)">
                <path d="M93.6087509,74.9281681 L124.135723,74.9281681 L81.444013,193.047522 L52.955987,193.047522 L52.955987,192.838052 L93.6087509,74.9281681 Z M30.9615552,46.4179769 L54.6317532,115.124393 L39.9687987,157.43749 L-0.0401202002,46.4179769 L30.9615552,46.4179769 Z" id="Combined-Shape" fill-rule="nonzero"></path>
                <path d="M127.2,84.8 L135.418458,84.8 L135.418458,144.969978 L127.2,144.969978 L127.2,84.8 Z M147.643925,101.102009 L154.635748,101.102009 L154.635748,107.327902 C156.707409,104.761073 158.901702,102.9179 161.218692,101.798326 C163.535681,100.678752 166.11159,100.118973 168.946495,100.118973 C175.16148,100.118973 179.359257,102.289822 181.539953,106.631585 C182.739336,109.007266 183.339019,112.406898 183.339019,116.83058 L183.339019,144.969978 L175.856542,144.969978 L175.856542,117.322098 C175.856542,114.646043 175.461297,112.488847 174.670794,110.850446 C173.362377,108.119778 170.990905,106.754464 167.556308,106.754464 C165.811751,106.754464 164.380691,106.931955 163.263084,107.286942 C161.24594,107.887689 159.474151,109.089165 157.947664,110.891406 C156.721022,112.338661 155.923717,113.833679 155.555724,115.376507 C155.187732,116.919334 155.003738,119.124316 155.003738,121.991518 L155.003738,144.969978 L147.643925,144.969978 L147.643925,101.102009 Z M197.813318,101.102009 L209.507243,136.818973 L221.73271,101.102009 L229.787617,101.102009 L213.268925,144.969978 L205.418458,144.969978 L189.267757,101.102009 L197.813318,101.102009 Z M236.084346,101.306808 L243.566822,101.306808 L243.566822,144.969978 L236.084346,144.969978 L236.084346,101.306808 Z M236.084346,84.8 L243.566822,84.8 L243.566822,93.1558036 L236.084346,93.1558036 L236.084346,84.8 Z M271.575,99.8322545 C276.508825,99.8322545 280.522609,101.033731 283.616472,103.436719 C286.710335,105.839707 288.570713,109.976608 289.197664,115.847545 L282.04229,115.847545 C281.60615,113.144183 280.611223,110.898242 279.057477,109.109654 C277.503731,107.321066 275.009597,106.426786 271.575,106.426786 C266.886503,106.426786 263.533733,108.720513 261.516589,113.308036 C260.208171,116.284464 259.553972,119.957158 259.553972,124.326228 C259.553972,128.722604 260.480754,132.422604 262.334346,135.426339 C264.187938,138.430075 267.104575,139.93192 271.084346,139.93192 C274.137321,139.93192 276.556494,138.99668 278.341939,137.126172 C280.127384,135.255664 281.360822,132.695701 282.04229,129.446205 L289.197664,129.446205 C288.379902,135.262529 286.33553,139.515481 283.064486,142.20519 C279.793442,144.894898 275.609293,146.239732 270.511916,146.239732 C264.787588,146.239732 260.221824,144.143976 256.814486,139.9524 C253.407148,135.760824 251.703505,130.524845 251.703505,124.244308 C251.703505,116.543823 253.570698,110.550096 257.30514,106.262946 C261.039583,101.975797 265.796155,99.8322545 271.575,99.8322545 Z M298.029439,88.8550223 L305.471028,88.8550223 L305.471028,101.102009 L312.46285,101.102009 L312.46285,107.123103 L305.471028,107.123103 L305.471028,135.754018 C305.471028,137.283192 305.988936,138.307177 307.024766,138.826004 C307.597199,139.126378 308.551239,139.276563 309.886916,139.276563 C310.241279,139.276563 310.622895,139.269736 311.031776,139.256083 C311.440656,139.242429 311.917676,139.208296 312.46285,139.153683 L312.46285,144.969978 C311.617831,145.215738 310.738751,145.393229 309.825584,145.502455 C308.912418,145.611682 307.924304,145.666295 306.861215,145.666295 C303.426618,145.666295 301.096034,144.785667 299.869393,143.024386 C298.642751,141.263105 298.029439,138.976205 298.029439,136.163616 L298.029439,107.123103 L292.100701,107.123103 L292.100701,101.102009 L298.029439,101.102009 L298.029439,88.8550223 Z M327.182477,101.102009 L327.182477,130.224442 C327.182477,132.46359 327.536834,134.29311 328.245561,135.713058 C329.553979,138.3345 331.993596,139.645201 335.564486,139.645201 C340.689122,139.645201 344.178184,137.351474 346.031776,132.763951 C347.040348,130.306349 347.544626,126.934024 347.544626,122.646875 L347.544626,101.102009 L354.904439,101.102009 L354.904439,144.969978 L347.953505,144.969978 L348.03528,138.498326 C347.081226,140.164034 345.89549,141.570307 344.478037,142.717188 C341.670391,145.010949 338.263104,146.157813 334.256075,146.157813 C328.013832,146.157813 323.761538,144.068882 321.499065,139.89096 C320.272424,137.651812 319.659112,134.661775 319.659112,130.920759 L319.659112,101.102009 L327.182477,101.102009 Z M370.768925,131.207478 C370.986995,133.665079 371.600306,135.549212 372.608879,136.859933 C374.46247,139.235615 377.678949,140.423438 382.258411,140.423438 C384.984282,140.423438 387.383011,139.829526 389.454673,138.641685 C391.526334,137.453845 392.56215,135.617498 392.56215,133.132589 C392.56215,131.248428 391.730772,129.814849 390.067991,128.831808 C389.004901,128.231061 386.906013,127.534751 383.771262,126.742857 L377.924299,125.268304 C374.189857,124.339876 371.436769,123.302238 369.664953,122.155357 C366.502944,120.161969 364.921963,117.404035 364.921963,113.881473 C364.921963,109.730857 366.414354,106.372185 369.399182,103.805357 C372.38401,101.238529 376.397794,99.9551339 381.440654,99.9551339 C388.03726,99.9551339 392.793833,101.893879 395.710514,105.771429 C397.536847,108.22903 398.422742,110.877739 398.368224,113.717634 L391.41729,113.717634 C391.280996,112.051926 390.694943,110.536428 389.659112,109.171094 C387.969073,107.232319 385.038806,106.262946 380.868224,106.262946 C378.087837,106.262946 375.982133,106.795419 374.551051,107.860379 C373.119969,108.92534 372.404439,110.331613 372.404439,112.079241 C372.404439,113.990709 373.34485,115.51986 375.225701,116.666741 C376.316049,117.349408 377.924288,117.950146 380.050467,118.468973 L384.916121,119.656808 C390.20431,120.940222 393.747888,122.182658 395.546963,123.384152 C398.409126,125.268313 399.840187,128.231044 399.840187,132.272433 C399.840187,136.177289 398.361424,139.549614 395.403855,142.389509 C392.446286,145.229404 387.941853,146.64933 381.890421,146.64933 C375.37559,146.64933 370.762124,145.167965 368.049883,142.20519 C365.337642,139.242415 363.886138,135.576547 363.695327,131.207478 L370.768925,131.207478 Z" id="Invictus"></path>
            </g>
        </g>
    </g>
</svg>